PathFileType	4	(X/Y/Z)	D:/ViconDB/Teaching_2017/Workshops/171025_A1_Demo01/Demo/171025_Guy_ROM_body_01_unlab.trc
DataRate	CameraRate	NumFrames	NumMarkers	Units	OrigDataRate	OrigDataStartFrame	OrigNumFrames
120.000000	120.000000	5	1	mm	120.000000	46	120
Frame#	Time	Unlabeled_Markers			
		X0	Y0	Z0	
46	0.383333				163.501358	83.379311	96.556908	-34.470551	1843.208130	-18.901981	-178.415985	78.985802	83.098877	129.117920	68.596886	-191.170486	126.816849	85.538300	51.944805	-204.378571	76.750206	27.309153	237.671173	1221.217773	-65.981300	-124.396233	75.924347	43.092747	-116.364708	76.098793	-194.407639	143.474091	1501.228149	-111.481842	179.507919	124.677399	-134.640213	207.993851	79.273682	42.720089	-6.662550	1553.294922	-100.587189	-179.003494	127.579620	-146.226746	-308.462067	866.816772	46.545021	196.330643	332.878510	-92.768318	262.947876	927.062927	39.654934	263.213531	1168.557861	-6.289185	-168.852814	1501.240356	-109.617035	66.497749	1733.967896	-43.866055	-240.032898	1207.888550	-105.660927	-198.668289	413.181793	-91.819214	238.409195	1356.272949	-32.479836	-89.708214	1716.643433	-76.087936	-303.318054	1048.958862	-10.856617	118.868256	1171.930908	-95.219643	-287.230804	920.285889	-9.252676	-293.904999	1168.042969	-51.291756	-185.314285	565.753601	-18.827009	-100.717636	1789.438110	53.209682	183.894348	662.685059	-14.553403	275.351898	872.876770	97.600899	256.381683	889.060974	123.927597	176.056732	549.441406	-12.497221	-0.236454	1374.816040	-129.585815	-116.265030	1157.411621	-111.456757	-257.925964	1362.209106	-50.794502	-10.401882	1484.050171	75.138603	-297.449493	873.210815	85.889473	-160.709091	650.225159	44.396210	-155.963348	1508.871826	8.477210	260.119720	1054.986572	55.183437	-201.061234	1011.643555	-59.909935	26.443947	1794.758911	72.644684	185.633499	981.986755	-18.028748	-135.784409	752.966248	68.368263	-140.702576	1093.121460	91.092331	114.349434	629.906433	51.134308	126.972939	1506.576416	28.112247	-3.694502	1347.902710	118.300995	-261.282043	945.711365	64.785126	209.131302	934.339661	104.539063	119.159088	1090.089966	90.653053																																																																																																																																																																																																																																																																																																																																																																																																																																																																																																																																																																																																															
47	0.391667				163.563004	83.397995	96.553040	-34.453999	1843.234253	-18.716394	-178.351334	79.018845	83.123985	129.194366	68.659088	-191.170685	126.913589	85.568863	51.935703	-204.317261	76.801216	27.327040	237.703629	1221.242065	-65.924538	-124.290474	76.014816	43.114731	-116.256622	76.148781	-194.431458	143.494263	1501.256104	-111.371193	179.554321	124.652855	-134.629517	208.057526	79.297119	42.721977	-6.610334	1553.383667	-100.424744	-178.948563	127.649940	-146.242233	-308.175995	866.811401	46.636463	196.348145	332.824127	-92.730087	262.974091	927.034058	39.708370	263.249664	1168.540527	-6.247335	-168.810104	1501.346558	-109.470032	66.512596	1733.936890	-43.666004	-239.924698	1207.964844	-105.590027	-198.574829	413.192108	-91.864258	238.436157	1356.253418	-32.417156	-89.674919	1716.736816	-75.932396	-303.139465	1048.983032	-10.745031	118.876617	1171.957520	-95.202927	-287.000916	920.378296	-9.223158	-293.772156	1168.093262	-51.227829	-185.213943	565.788208	-18.853230	-100.676598	1789.499512	53.445820	183.903778	662.618225	-14.541821	275.339478	872.816223	97.615845	256.511139	889.143250	124.002716	176.067490	549.393555	-12.461449	-0.218737	1374.873047	-129.514465	-116.252388	1157.452881	-111.412743	-257.800903	1362.221191	-50.623409	-10.265314	1484.102783	75.304985	-297.022308	873.157593	85.916077	-160.599625	650.252869	44.382473	-155.823624	1508.942993	8.739097	260.168396	1054.966431	55.227676	-201.041962	1011.722229	-59.947704	26.465036	1794.719727	72.826210	185.613754	981.945435	-18.086313	-135.752655	752.942383	68.399353	-140.550659	1093.177856	91.155258	114.441910	629.886353	51.235401	127.173370	1506.715942	28.312817	-3.509076	1347.934937	118.451195	-260.975616	945.723877	64.876808	208.793884	934.036743	104.255615	119.216629	1090.069336	90.677925																																																																																																																																																																																																																																																																																																																																																																																																																																																																																																																																																																																																															
48	0.400000				163.618805	83.416985	96.553062	-34.427746	1843.263428	-18.521585	-178.269791	79.096512	83.127243	129.272598	68.695839	-191.164963	126.952362	85.577721	51.936989	-204.261383	76.857521	27.315109	237.749878	1221.255859	-65.873642	-124.245483	76.065514	43.135254	-116.180260	76.192032	-194.456421	143.527512	1501.314819	-111.258194	179.538818	124.617401	-134.632126	208.087448	79.305412	42.708862	-6.537493	1553.418945	-100.264870	-178.867203	127.702599	-146.299484	-307.922821	866.792969	46.734055	196.401199	332.791992	-92.708427	262.956360	927.002563	39.695202	263.260956	1168.506836	-6.235636	-168.761795	1501.425171	-109.310501	66.515045	1733.939941	-43.514198	-239.773865	1207.981934	-105.485443	-198.514877	413.234833	-91.905151	238.470184	1356.248291	-32.372120	-89.632736	1716.771362	-75.758064	-302.948303	1049.017700	-10.630292	118.919037	1171.953491	-95.197968	-286.736755	920.385925	-9.154084	-293.658295	1168.089600	-51.131565	-185.177734	565.862183	-18.883991	-100.561874	1789.563477	53.686081	183.915909	662.574280	-14.540777	275.359253	872.784241	97.623138	255.968887	888.563293	123.676674	176.070679	549.339905	-12.459038	-0.203009	1374.897339	-129.363525	-116.202263	1157.452026	-111.372047	-257.743042	1362.287720	-50.461384	-10.124063	1484.168213	75.471130	-297.317749	873.435913	86.340569	-160.533142	650.298401	44.359962	-155.693466	1509.047119	8.978976	260.164764	1054.941772	55.236702	-200.978424	1011.772339	-59.962032	26.470020	1794.696167	72.988014	185.621674	981.882019	-18.127445	-135.687256	752.982239	68.390953	-140.479172	1093.230469	91.195854	114.483780	629.844727	51.257313	127.063370	1506.560059	28.338938	-3.392307	1347.971436	118.566917	-260.732147	945.768311	64.950424	208.771820	934.046936	104.235817	119.242821	1090.065063	90.614738																																																																																																																																																																																																																																																																																																																																																																																																																																																																																																																																																																																																															
49	0.408333				163.642487	83.449326	96.555710	-34.436466	1843.305908	-18.308023	-178.254120	79.134262	83.123047	129.316559	68.722702	-191.153732	126.934631	85.581245	51.930672	-204.261826	76.936562	27.326357	237.778625	1221.310425	-65.850441	-124.237518	76.114571	43.140709	-116.142334	76.231682	-194.461029	143.523636	1501.354004	-111.154457	179.538452	124.615822	-134.680603	208.096069	79.307175	42.692982	-6.491662	1553.450439	-100.106834	-178.815369	127.712753	-146.292542	-307.676788	866.779602	46.821472	196.380310	332.764557	-92.704025	262.978333	927.016357	39.708565	263.245514	1168.496216	-6.247037	-168.723801	1501.432739	-109.115471	66.632515	1734.192749	-43.293842	-239.697998	1207.979370	-105.377655	-198.441742	413.247467	-91.945183	238.435165	1356.244019	-32.339447	-89.628975	1716.795288	-75.571259	-302.818390	1049.019287	-10.542326	118.953842	1171.960327	-95.219315	-286.516968	920.346313	-9.084505	-293.536621	1168.066284	-51.023655	-185.138779	565.909851	-18.921513	-100.577385	1789.601196	53.862900	183.905029	662.586060	-14.539892	275.342804	872.776367	97.611649	256.599976	889.219238	124.053764	176.060989	549.341248	-12.439814	-0.156696	1374.913574	-129.281464	-116.177193	1157.476563	-111.303085	-257.719025	1362.341187	-50.335045	-10.054650	1484.237061	75.608841	-297.258362	873.593506	86.549370	-160.488022	650.403992	44.354935	-155.626389	1509.119507	9.208629	260.173035	1054.967285	55.255676	-200.914505	1011.775085	-59.921696	26.440285	1794.708618	73.124168	185.601105	981.792236	-18.179914	-135.665604	753.049255	68.400978	-140.478104	1093.305054	91.240921	114.503090	629.856445	51.323448	127.439034	1506.953369	28.629490	-2.815942	1348.411865	118.992554	-260.539337	945.844604	65.067108	208.830200	934.152405	104.324074	119.234398	1090.095215	90.559250																																																																																																																																																																																																																																																																																																																																																																																																																																																																																																																																																																																																															
50	0.416667				163.616837	83.471992	96.521095	-34.494232	1843.331909	-18.147852	-178.304947	79.131798	83.092957	129.305695	68.742554	-191.169418	126.904472	85.589394	51.893402	-204.288635	76.950890	27.320190	237.767075	1221.329712	-65.852432	-124.269165	76.125717	43.100502	-116.193192	76.219154	-194.477020	143.483276	1501.380737	-111.080559	179.527435	124.639099	-134.732544	208.049561	79.321144	42.656429	-6.538619	1553.484619	-100.004036	-178.814087	127.680313	-146.299149	-307.470367	866.773071	46.844402	196.356155	332.775085	-92.661690	262.954559	927.039246	39.679546	263.236603	1168.526245	-6.246678	-168.732574	1501.439453	-109.002121	66.622520	1734.235718	-43.173382	-239.620773	1207.966309	-105.285820	-198.414536	413.220642	-91.994743	238.413956	1356.250488	-32.313839	-89.680473	1716.801880	-75.438179	-302.701569	1048.996582	-10.506357	118.932251	1171.964722	-95.254768	-286.328186	920.272339	-9.066898	-293.461243	1167.991943	-50.930534	-185.152023	565.948364	-18.959684	-100.615082	1789.598022	54.013882	183.896057	662.608093	-14.553222	275.333374	872.815796	97.593437	256.597443	889.230347	124.033997	176.008118	549.377441	-12.419100	-0.171686	1374.946289	-129.230133	-116.180962	1157.494141	-111.328842	-257.513550	1362.665161	-50.086494	-10.036185	1484.267090	75.701675	-296.928223	873.422974	86.432388	-160.472198	650.452148	44.319000	-155.694885	1509.112427	9.293085	260.169098	1054.974609	55.254608	-200.935043	1011.760010	-59.921200	26.411049	1794.732056	73.263367	185.587143	981.782959	-18.228207	-135.682266	753.098267	68.368172	-140.495193	1093.328125	91.233223	114.530869	629.923828	51.386597	127.078300	1506.646362	28.502146	-3.245483	1348.025635	118.728340	-260.331085	945.802979	65.084648	208.872925	934.241211	104.366486	119.234276	1090.149780	90.517181																																																																																																																																																																																																																																																																																																																																																																																																																																																																																																																																																																																																															
